<svg width="2142" height="420" viewBox="0 0 2142 420" fill="none" xmlns="http://www.w3.org/2000/svg">
<path d="M345.844 121.25C345.844 123.816 343.947 377.844 178.5 377.844C13.0528 377.844 11.1562 123.816 11.1562 121.25C11.1562 116.788 13.8338 112.771 17.9616 110.986L174.149 44.0488C176.938 42.8216 180.062 42.8216 182.851 44.0488L339.038 110.986C343.166 112.771 345.844 116.788 345.844 121.25Z" fill="#2CA9BC"/>
<path d="M245.775 150.004V214.631H110.778V150.005L178.276 98.1594L245.775 150.004Z" fill="#2CA9BC" stroke="white" stroke-width="20"/>
<path d="M74.9452 164.965L178.277 85.55L281.609 164.965" stroke="white" stroke-width="20" stroke-linecap="round" stroke-linejoin="round"/>
<path d="M100.778 145.216V224.631M255.776 224.631V145.216M139.527 335.896H217.026M100.778 280.264H178.277H255.776M62.0287 224.631H294.525" stroke="white" stroke-width="20" stroke-linecap="round" stroke-linejoin="round"/>
<path d="M416.4 160.4C416.4 136.667 423.333 117.6 437.2 103.2C451.067 88.8 470 81.6 494 81.6C518.267 81.6 543.067 84 568.4 88.8L560.4 152.8C534 146.667 515.867 143.6 506 143.6C493.467 143.6 487.2 148.667 487.2 158.8C487.2 162.8 490.133 166.667 496 170.4C502.133 174.133 509.467 178.133 518 182.4C526.533 186.4 535.067 191.333 543.6 197.2C552.133 202.8 559.333 210.933 565.2 221.6C571.333 232.267 574.4 244.533 574.4 258.4C574.4 283.733 567.6 303.333 554 317.2C540.4 331.067 521.067 338 496 338C471.2 338 446.933 334.133 423.2 326.4L427.6 266.8C456.133 275.067 476 279.2 487.2 279.2C498.4 279.2 504 274.267 504 264.4C504 259.333 500.933 254.667 494.8 250.4C488.933 246.133 481.733 241.867 473.2 237.6C464.667 233.333 456 228.4 447.2 222.8C438.667 217.2 431.333 209.067 425.2 198.4C419.333 187.733 416.4 175.067 416.4 160.4ZM776.703 334H709.903L702.303 294.8H655.103L647.503 334H583.903L629.503 85.6H731.103L776.703 334ZM694.703 248L680.703 159.2H677.903L663.903 248H694.703ZM931.922 146.8H865.922V184H919.122V236.8H865.922V334H797.522V85.6H935.922L931.922 146.8ZM1085.83 334H951.428V85.6H1089.83L1085.83 146.8H1019.83V184H1077.03V236.8H1019.83V278H1089.83L1085.83 334ZM1331.53 146.8H1265.53V184H1318.73V236.8H1265.53V334H1197.13V85.6H1335.53L1331.53 146.8ZM1477.44 334H1351.04V85.6H1419.44V278.4H1481.44L1477.44 334ZM1510.76 111.6C1526.23 91.6 1551.43 81.6 1586.36 81.6C1621.29 81.6 1646.23 91.4667 1661.16 111.2C1676.36 130.933 1683.96 163.067 1683.96 207.6C1683.96 251.867 1676.23 284.667 1660.76 306C1645.29 327.333 1620.23 338 1585.56 338C1550.89 338 1525.96 327.467 1510.76 306.4C1495.56 285.333 1487.96 252.667 1487.96 208.4C1487.96 163.867 1495.56 131.6 1510.76 111.6ZM1615.16 207.6C1615.16 183.067 1613.16 166.533 1609.16 158C1605.43 149.2 1597.56 144.8 1585.56 144.8C1573.83 144.8 1566.23 149.2 1562.76 158C1559.29 166.533 1557.56 182.933 1557.56 207.2V216.8C1557.56 242.667 1559.43 259.733 1563.16 268C1567.16 276 1575.03 280 1586.76 280C1598.76 280 1606.49 276.133 1609.96 268.4C1613.43 260.667 1615.16 244.667 1615.16 220.4V207.6ZM1725.99 111.6C1741.46 91.6 1766.66 81.6 1801.59 81.6C1836.53 81.6 1861.46 91.4667 1876.39 111.2C1891.59 130.933 1899.19 163.067 1899.19 207.6C1899.19 251.867 1891.46 284.667 1875.99 306C1860.53 327.333 1835.46 338 1800.79 338C1766.13 338 1741.19 327.467 1725.99 306.4C1710.79 285.333 1703.19 252.667 1703.19 208.4C1703.19 163.867 1710.79 131.6 1725.99 111.6ZM1830.39 207.6C1830.39 183.067 1828.39 166.533 1824.39 158C1820.66 149.2 1812.79 144.8 1800.79 144.8C1789.06 144.8 1781.46 149.2 1777.99 158C1774.53 166.533 1772.79 182.933 1772.79 207.2V216.8C1772.79 242.667 1774.66 259.733 1778.39 268C1782.39 276 1790.26 280 1801.99 280C1813.99 280 1821.73 276.133 1825.19 268.4C1828.66 260.667 1830.39 244.667 1830.39 220.4V207.6ZM2111.23 204.4C2111.23 290.8 2077.09 334 2008.83 334H1926.43V85.6H2010.43C2046.96 85.6 2072.83 95.8666 2088.03 116.4C2103.49 136.667 2111.23 166 2111.23 204.4ZM2007.63 276.4C2021.76 276.4 2030.83 271.467 2034.83 261.6C2039.09 251.467 2041.23 234.667 2041.23 211.2C2041.23 187.467 2038.96 170.667 2034.43 160.8C2030.16 150.933 2020.83 146 2006.43 146H1994.43V276.4H2007.63Z" fill="#EDEEF0"/>
</svg>
